<svg width="75" height="75" viewBox="0 0 75 75" fill="none" xmlns="http://www.w3.org/2000/svg">
<path d="M37.4997 8.70535C38.0325 8.70535 38.5435 8.91701 38.9202 9.29375C39.297 9.6705 39.5087 10.1815 39.5087 10.7143V35.4911H64.2854C64.8182 35.4911 65.3292 35.7027 65.706 36.0795C66.0827 36.4562 66.2944 36.9672 66.2944 37.5C66.2944 38.0328 66.0827 38.5438 65.706 38.9205C65.3292 39.2973 64.8182 39.5089 64.2854 39.5089H39.5087V64.2857C39.5087 64.8185 39.297 65.3295 38.9202 65.7062C38.5435 66.083 38.0325 66.2946 37.4997 66.2946C36.9669 66.2946 36.4559 66.083 36.0792 65.7062C35.7024 65.3295 35.4908 64.8185 35.4908 64.2857V39.5089H10.714C10.1812 39.5089 9.67023 39.2973 9.29348 38.9205C8.91673 38.5438 8.70508 38.0328 8.70508 37.5C8.70508 36.9672 8.91673 36.4562 9.29348 36.0795C9.67023 35.7027 10.1812 35.4911 10.714 35.4911H35.4908V10.7143C35.4908 10.1815 35.7024 9.6705 36.0792 9.29375C36.4559 8.91701 36.9669 8.70535 37.4997 8.70535Z" fill="#0B8C76"/>
</svg>
