<svg width="31" height="31" viewBox="0 0 31 31" fill="none" xmlns="http://www.w3.org/2000/svg">
<path d="M26.9616 9.62892L21.8262 12.1966M21.8262 12.1966L21.1842 12.5176L15.4069 15.4063M21.8262 12.1966V16.6901M21.8262 12.1966L9.62956 5.77735M15.4069 15.4063L3.85221 9.62892M15.4069 15.4063V27.6029M20.0005 4.34201L22.5682 5.69005C25.3298 7.13952 26.7112 7.86362 27.479 9.16673C28.2454 10.4686 28.2454 12.0901 28.2454 15.3318V15.482C28.2454 18.7225 28.2454 20.344 27.479 21.6458C26.7112 22.9489 25.3298 23.6743 22.5682 25.1238L20.0005 26.4705C17.7461 27.6529 16.6189 28.2448 15.4069 28.2448C14.1949 28.2448 13.0677 27.6542 10.8133 26.4705L8.24556 25.1225C5.48399 23.673 4.10257 22.9489 3.33482 21.6458C2.56836 20.344 2.56836 18.7225 2.56836 15.4833V15.3331C2.56836 12.0913 2.56836 10.4698 3.33482 9.16801C4.10257 7.8649 5.48399 7.13952 8.24556 5.69134L10.8133 4.34329C13.0677 3.15958 14.1949 2.56772 15.4069 2.56772C16.6189 2.56772 17.7461 3.15829 20.0005 4.34201Z" stroke="white" stroke-width="2" stroke-linecap="round"/>
</svg>
