<svg width="30" height="30" viewBox="0 0 30 30" fill="none" xmlns="http://www.w3.org/2000/svg">
<path d="M18.75 10.3125V7.96875C18.75 7.34715 18.5031 6.75101 18.0635 6.31147C17.624 5.87193 17.0279 5.625 16.4062 5.625H5.15625C4.53465 5.625 3.93851 5.87193 3.49897 6.31147C3.05943 6.75101 2.8125 7.34715 2.8125 7.96875V22.0312C2.8125 22.6529 3.05943 23.249 3.49897 23.6885C3.93851 24.1281 4.53465 24.375 5.15625 24.375H16.4062C17.0279 24.375 17.624 24.1281 18.0635 23.6885C18.5031 23.249 18.75 22.6529 18.75 22.0312V19.6875M22.5 10.3125L27.1875 15M27.1875 15L22.5 19.6875M27.1875 15H11.1914" stroke="#032620" stroke-width="2" stroke-linecap="round" stroke-linejoin="round"/>
</svg>
