<svg width="22" height="27" viewBox="0 0 22 27" fill="none" xmlns="http://www.w3.org/2000/svg">
<path d="M11 11C13.7614 11 16 8.76142 16 6C16 3.23858 13.7614 1 11 1C8.23858 1 6 3.23858 6 6C6 8.76142 8.23858 11 11 11Z" stroke="#032620" stroke-width="2"/>
<path d="M20.9975 21C20.9992 20.795 21 20.5867 21 20.375C21 17.2688 16.5225 14.75 11 14.75C5.4775 14.75 1 17.2688 1 20.375C1 23.4812 1 26 11 26C13.7887 26 15.8 25.8037 17.25 25.4537" stroke="#032620" stroke-width="2" stroke-linecap="round"/>
</svg>
