<svg width="95" height="95" viewBox="0 0 95 95" fill="none" xmlns="http://www.w3.org/2000/svg">
<path d="M89.0993 38.6667C88.9436 33.1495 88.4218 29.6314 86.6543 26.6308C84.1377 22.3594 79.6095 19.9817 70.5574 15.2347L62.1408 10.8159C54.7509 6.94004 51.056 5 47.0833 5C43.1107 5 39.4158 6.93583 32.0259 10.8159L23.6093 15.2347C14.5571 19.9817 10.029 22.3594 7.51237 26.6308C5 30.8981 5 36.2132 5 46.8392V47.3316C5 57.9535 5 63.2686 7.51237 67.5358C10.029 71.8073 14.5571 74.185 23.6093 78.9362L32.0259 83.3507C39.4158 87.2266 43.1107 89.1667 47.0833 89.1667C51.056 89.1667 54.7509 87.2308 62.1408 83.3507L70.5574 78.932C79.6095 74.1808 84.1377 71.8073 86.6543 67.5358C88.4218 64.5353 88.9436 61.0171 89.0993 55.5M84.9583 28.1458L68.125 36.5625M68.125 36.5625L66.0208 37.6146L47.0833 47.0833M68.125 36.5625V51.2917M68.125 36.5625L28.1458 15.5208M47.0833 47.0833L9.20833 28.1458M47.0833 47.0833V87.0625" stroke="white" stroke-width="10" stroke-linecap="round"/>
</svg>
