<svg width="30" height="30" viewBox="0 0 30 30" fill="none" xmlns="http://www.w3.org/2000/svg">
<path d="M18.7498 22.5C18.7498 23.4946 18.3548 24.4484 17.6515 25.1517C16.9482 25.8549 15.9944 26.25 14.9998 26.25C14.0053 26.25 13.0515 25.8549 12.3482 25.1517C11.6449 24.4484 11.2498 23.4946 11.2498 22.5M7.55359 22.5C7.12443 22.4998 6.70232 22.3908 6.32675 22.1831C5.95118 21.9754 5.63442 21.6759 5.40609 21.3125C5.17431 20.9486 5.03673 20.5328 5.00574 20.1024C4.97475 19.6721 5.05134 19.2408 5.22859 18.8475L5.90984 17.3325C6.73137 15.502 7.21985 13.5396 7.35234 11.5375L7.39109 10.9462C7.51825 9.00096 8.37386 7.17504 9.78734 5.8325C11.1941 4.49813 13.0584 3.75297 14.9973 3.75C16.9363 3.75297 18.8006 4.49813 20.2073 5.8325C21.6205 7.17473 22.4761 9.00015 22.6036 10.945L22.6423 11.5375C22.7748 13.5396 23.2633 15.502 24.0848 17.3325L24.7673 18.8462C24.9462 19.2398 25.0241 19.6718 24.994 20.1031C24.9639 20.5344 24.8267 20.9513 24.5948 21.3162C24.3655 21.6798 24.0476 21.9792 23.6708 22.1863C23.2941 22.3933 22.871 22.5013 22.4411 22.5H7.55359Z" stroke="#032620" stroke-width="2" stroke-miterlimit="10" stroke-linecap="round" stroke-linejoin="round"/>
</svg>
