<svg width="25" height="25" viewBox="0 0 25 25" fill="none" xmlns="http://www.w3.org/2000/svg">
<path d="M22.2438 2.75625C21.8636 2.3757 21.4121 2.07381 20.9152 1.86784C20.4182 1.66186 19.8856 1.55585 19.3477 1.55585C18.8097 1.55585 18.2771 1.66186 17.7802 1.86784C17.2832 2.07381 16.8318 2.3757 16.4516 2.75625L4.15157 15.0563C3.56771 15.641 3.15118 16.3716 2.94532 17.1719L1.58595 22.4625C1.55224 22.5941 1.55344 22.7323 1.58945 22.8633C1.62545 22.9944 1.69501 23.1137 1.79125 23.2097C1.8875 23.3056 2.0071 23.3747 2.13824 23.4103C2.26939 23.4459 2.40754 23.4466 2.53907 23.4125L7.82813 22.0547C8.62873 21.8495 9.35944 21.4329 9.94376 20.8484L22.2438 8.54844C22.6243 8.16825 22.9262 7.71679 23.1322 7.21986C23.3382 6.72293 23.4442 6.19027 23.4442 5.65235C23.4442 5.11442 23.3382 4.58177 23.1322 4.08484C22.9262 3.58791 22.6243 3.13645 22.2438 2.75625ZM17.5563 3.86094C18.0314 3.38583 18.6758 3.11892 19.3477 3.11892C20.0196 3.11892 20.664 3.38583 21.1391 3.86094C21.6142 4.33605 21.8811 4.98044 21.8811 5.65235C21.8811 6.32426 21.6142 6.96864 21.1391 7.44376L19.9219 8.66094L16.3391 5.07813L17.5563 3.86094ZM15.2344 6.18282L18.8172 9.76563L8.83907 19.7438C8.45235 20.1302 7.96878 20.4054 7.43907 20.5406L3.42813 21.5719L4.45938 17.5609C4.59388 17.0309 4.86923 16.5472 5.25626 16.1609L15.2344 6.18282Z" fill="#0B8C76"/>
</svg>
