<svg width="229" height="40" viewBox="0 0 229 40" fill="none" xmlns="http://www.w3.org/2000/svg">
<path d="M18.828 27.847L18.288 31.375H2.988L3.24 25.975V9.595L2.988 4.375H18.54L18 7.903H6.948V15.715H16.884L16.308 19.243H6.948V27.847H18.828ZM22.4401 25.363C22.4401 23.947 22.7521 22.687 23.3761 21.583C24.0241 20.455 24.9001 19.579 26.0041 18.955C27.1321 18.331 28.3801 18.019 29.7481 18.019C30.8281 18.019 31.8961 18.127 32.9521 18.343C34.0321 18.559 34.8841 18.847 35.5081 19.207V17.083C35.5081 15.619 35.1121 14.539 34.3201 13.843C33.5521 13.147 32.3521 12.799 30.7201 12.799C29.2561 12.799 27.9361 13.075 26.7601 13.627C25.6081 14.155 24.7081 14.911 24.0601 15.895L23.6641 15.823L24.1681 11.755C24.9841 10.963 26.0041 10.351 27.2281 9.919C28.4761 9.487 29.8201 9.271 31.2601 9.271C33.7321 9.271 35.6521 9.883 37.0201 11.107C38.4121 12.307 39.1081 14.035 39.1081 16.291V26.011L39.3601 31.375H35.6161L35.5081 29.215C35.0761 29.935 34.2601 30.571 33.0601 31.123C31.8601 31.675 30.6361 31.951 29.3881 31.951C27.2041 31.951 25.5001 31.375 24.2761 30.223C23.0521 29.047 22.4401 27.427 22.4401 25.363ZM26.1841 25.039C26.1841 26.335 26.4601 27.259 27.0121 27.811C27.5881 28.363 28.5721 28.639 29.9641 28.639C30.9001 28.639 31.9321 28.435 33.0601 28.027C34.2121 27.619 35.0281 27.151 35.5081 26.623V22.555C34.9321 22.195 34.1281 21.895 33.0961 21.655C32.0641 21.415 31.0201 21.295 29.9641 21.295C28.6441 21.295 27.6841 21.607 27.0841 22.231C26.4841 22.855 26.1841 23.791 26.1841 25.039ZM51.8774 31.735C50.3174 31.735 48.9734 31.519 47.8454 31.087C46.7414 30.655 45.6614 29.923 44.6054 28.891L44.1014 25.507L44.6054 25.363C46.9334 27.235 49.2974 28.171 51.6974 28.171C54.4094 28.171 55.7654 27.415 55.7654 25.903C55.7654 25.351 55.6214 24.895 55.3334 24.535C55.0454 24.151 54.5294 23.779 53.7854 23.419C53.0414 23.035 51.9254 22.579 50.4374 22.051C48.8774 21.499 47.6654 20.947 46.8014 20.395C45.9614 19.843 45.3614 19.207 45.0014 18.487C44.6654 17.743 44.4974 16.819 44.4974 15.715C44.4974 13.675 45.1334 12.103 46.4054 10.999C47.7014 9.871 49.5494 9.307 51.9494 9.307C53.4134 9.307 54.6974 9.487 55.8014 9.847C56.9294 10.183 57.9494 10.723 58.8614 11.467L58.2494 14.851L57.7094 14.995C57.2054 14.347 56.4134 13.831 55.3334 13.447C54.2774 13.039 53.1974 12.835 52.0934 12.835C50.8214 12.835 49.8494 13.051 49.1774 13.483C48.5294 13.915 48.2054 14.527 48.2054 15.319C48.2054 15.919 48.3494 16.411 48.6374 16.795C48.9254 17.179 49.4294 17.551 50.1494 17.911C50.8694 18.247 51.9494 18.655 53.3894 19.135C55.6214 19.855 57.1934 20.695 58.1054 21.655C59.0174 22.615 59.4734 23.923 59.4734 25.579C59.4734 27.571 58.8254 29.095 57.5294 30.151C56.2574 31.207 54.3734 31.735 51.8774 31.735ZM81.2841 9.775L79.3761 14.995L74.2641 31.375C72.8961 34.831 70.9521 37.423 68.4321 39.151L65.4081 36.343L65.6241 35.839C66.4401 35.623 67.3521 35.059 68.3601 34.147C69.3921 33.259 70.1361 32.335 70.5921 31.375H69.4041L64.4361 14.995L62.4921 9.775H67.1361L68.2881 14.995L71.8881 28.171L75.5241 14.995L76.6761 9.775H81.2841ZM93.321 31.771C91.545 31.771 89.949 31.519 88.533 31.015C87.141 30.487 85.821 29.635 84.573 28.459L84.033 24.823L84.537 24.679C87.249 26.983 90.009 28.135 92.817 28.135C94.593 28.135 95.973 27.799 96.957 27.127C97.941 26.455 98.433 25.543 98.433 24.391C98.433 23.599 98.253 22.951 97.893 22.447C97.557 21.943 96.933 21.487 96.021 21.079C95.109 20.671 93.753 20.239 91.953 19.783C89.193 19.039 87.225 18.067 86.049 16.867C84.897 15.667 84.321 13.999 84.321 11.863C84.321 9.439 85.089 7.531 86.625 6.139C88.185 4.723 90.333 4.015 93.069 4.015C94.701 4.015 96.261 4.267 97.749 4.771C99.237 5.251 100.449 5.923 101.385 6.787L100.845 10.315L100.305 10.459C99.585 9.643 98.589 8.971 97.317 8.443C96.069 7.915 94.809 7.651 93.537 7.651C91.785 7.651 90.453 7.975 89.541 8.623C88.653 9.271 88.209 10.219 88.209 11.467C88.209 12.331 88.389 13.039 88.749 13.591C89.109 14.143 89.709 14.623 90.549 15.031C91.413 15.439 92.637 15.847 94.221 16.255C96.261 16.783 97.857 17.383 99.009 18.055C100.185 18.703 101.025 19.495 101.529 20.431C102.057 21.367 102.321 22.531 102.321 23.923C102.321 26.395 101.505 28.327 99.873 29.719C98.265 31.087 96.081 31.771 93.321 31.771ZM106.398 10.819L108.702 9.775L109.782 5.275H112.302V9.775H118.458V13.159H112.302V25.039C112.302 26.167 112.506 26.995 112.914 27.523C113.322 28.027 113.958 28.279 114.822 28.279C115.638 28.279 116.418 28.111 117.162 27.775C117.906 27.439 118.458 27.007 118.818 26.479L119.358 26.695L118.566 29.791C117.222 31.135 115.71 31.807 114.03 31.807C112.182 31.807 110.826 31.243 109.962 30.115C109.122 28.963 108.702 27.079 108.702 24.463V13.159H106.398V10.819ZM171.921 31.951C166.161 31.951 163.281 28.219 163.281 20.755C163.281 17.083 164.013 14.263 165.477 12.295C166.965 10.327 169.149 9.343 172.029 9.343C173.541 9.343 174.741 9.475 175.629 9.739C176.541 9.979 177.417 10.411 178.257 11.035L177.681 14.239L177.105 14.491C176.529 13.915 175.881 13.507 175.161 13.267C174.441 13.003 173.541 12.871 172.461 12.871C170.541 12.871 169.149 13.495 168.285 14.743C167.445 15.991 167.025 17.995 167.025 20.755C167.025 22.627 167.205 24.115 167.565 25.219C167.925 26.323 168.513 27.127 169.329 27.631C170.145 28.135 171.249 28.387 172.641 28.387C173.865 28.387 174.849 28.255 175.593 27.991C176.337 27.727 177.129 27.247 177.969 26.551L178.581 26.839L177.789 30.043C176.853 30.763 175.965 31.255 175.125 31.519C174.285 31.807 173.217 31.951 171.921 31.951ZM200.766 31.375H195.834L193.17 26.155L189.93 20.611L186.906 24.175V25.975L187.158 31.375H183.054L183.306 25.975V7.795L183.054 2.575H187.158L186.906 7.795V19.495L190.578 14.995L194.322 9.775H199.506L194.682 14.995L192.126 17.983L197.202 26.155L200.766 31.375Z" fill="white"/>
<path d="M158.46 16.377C158.399 14.2299 158.196 12.8608 157.508 11.6931C156.529 10.0309 154.767 9.10559 151.244 7.25827L147.969 5.53869C145.093 4.03037 143.655 3.27539 142.109 3.27539C140.563 3.27539 139.125 4.02873 136.249 5.53869L132.974 7.25827C129.451 9.10559 127.689 10.0309 126.71 11.6931C125.732 13.3538 125.732 15.4222 125.732 19.5574V19.749C125.732 23.8825 125.732 25.9509 126.71 27.6115C127.689 29.2738 129.451 30.1991 132.974 32.0481L136.249 33.766C139.125 35.2743 140.563 36.0293 142.109 36.0293C143.655 36.0293 145.093 35.276 147.969 33.766L151.244 32.0464C154.767 30.1975 156.529 29.2738 157.508 27.6115C158.196 26.4439 158.399 25.0748 158.46 22.9277M156.848 12.2827L150.297 15.5581M150.297 15.5581L149.479 15.9675L142.109 19.6523M150.297 15.5581V21.29M150.297 15.5581L134.739 7.36963M142.109 19.6523L127.37 12.2827M142.109 19.6523V35.2104" stroke="white" stroke-width="2" stroke-linecap="round"/>
</svg>
