<svg width="32" height="32" viewBox="0 0 32 32" fill="none" xmlns="http://www.w3.org/2000/svg">
<path d="M16.0001 3.71428C16.2274 3.71428 16.4454 3.80458 16.6062 3.96533C16.7669 4.12608 16.8572 4.34409 16.8572 4.57142V15.1429H27.4286C27.656 15.1429 27.874 15.2332 28.0347 15.3939C28.1955 15.5546 28.2858 15.7727 28.2858 16C28.2858 16.2273 28.1955 16.4453 28.0347 16.6061C27.874 16.7668 27.656 16.8571 27.4286 16.8571H16.8572V27.4286C16.8572 27.6559 16.7669 27.8739 16.6062 28.0347C16.4454 28.1954 16.2274 28.2857 16.0001 28.2857C15.7727 28.2857 15.5547 28.1954 15.394 28.0347C15.2332 27.8739 15.1429 27.6559 15.1429 27.4286V16.8571H4.5715C4.34417 16.8571 4.12615 16.7668 3.96541 16.6061C3.80466 16.4453 3.71436 16.2273 3.71436 16C3.71436 15.7727 3.80466 15.5546 3.96541 15.3939C4.12615 15.2332 4.34417 15.1429 4.5715 15.1429H15.1429V4.57142C15.1429 4.34409 15.2332 4.12608 15.394 3.96533C15.5547 3.80458 15.7727 3.71428 16.0001 3.71428Z" fill="white"/>
</svg>
