<svg width="25" height="25" viewBox="0 0 25 25" fill="none" xmlns="http://www.w3.org/2000/svg">
<path d="M12.4985 18.75C9.91252 18.75 7.81095 16.6484 7.81095 14.0625C7.81095 11.4766 9.91252 9.375 12.4985 9.375C15.0844 9.375 17.186 11.4766 17.186 14.0625C17.186 16.6484 15.0844 18.75 12.4985 18.75ZM12.4985 10.1562C10.3422 10.1562 8.5922 11.9062 8.5922 14.0625C8.5922 16.2188 10.3422 17.9688 12.4985 17.9688C14.6547 17.9688 16.4047 16.2188 16.4047 14.0625C16.4047 11.9062 14.6547 10.1562 12.4985 10.1562ZM23.0453 14.0625C22.9567 14.0615 22.871 14.031 22.8016 13.9758C22.7323 13.9207 22.6834 13.8439 22.6625 13.7578C22.5844 13.4219 20.6703 5.46875 12.4985 5.46875C4.32658 5.46875 2.41252 13.4219 2.33439 13.7578C2.3069 13.8544 2.24352 13.9367 2.15723 13.988C2.07095 14.0393 1.96831 14.0556 1.87037 14.0336C1.77243 14.0116 1.68662 13.953 1.63054 13.8698C1.57446 13.7865 1.55235 13.685 1.56877 13.5859C1.5922 13.5 3.69377 4.6875 12.4985 4.6875C21.3031 4.6875 23.4047 13.4922 23.4281 13.5859C23.475 13.7969 23.3422 14.0078 23.1313 14.0547C23.1 14.0547 23.0688 14.0625 23.0453 14.0625Z" fill="black" fill-opacity="0.5"/>
</svg>
