<svg width="35" height="37" viewBox="0 0 35 37" fill="none" xmlns="http://www.w3.org/2000/svg">
<g filter="url(#filter0_d_704_6)">
<path d="M21.3768 20.5659L28.6612 27.8503C28.838 28.0211 29.0748 28.1156 29.3206 28.1134C29.5665 28.1113 29.8016 28.0127 29.9754 27.8389C30.1492 27.6651 30.2478 27.4299 30.25 27.1841C30.2521 26.9383 30.1576 26.7015 29.9868 26.5247L5.61183 2.14969C5.52535 2.06015 5.4219 1.98873 5.30752 1.93959C5.19315 1.89046 5.07013 1.8646 4.94565 1.86352C4.82117 1.86243 4.69772 1.88615 4.5825 1.93329C4.46729 1.98043 4.36261 2.05004 4.27459 2.13807C4.18656 2.22609 4.11695 2.33077 4.06981 2.44598C4.02267 2.5612 3.99895 2.68465 4.00004 2.80913C4.00112 2.93361 4.02698 3.05663 4.07611 3.171C4.12525 3.28538 4.19667 3.38883 4.28621 3.47531L9.11996 8.31C5.26121 11.385 4.08558 16.0369 4.02183 16.2928L4.01902 16.3031C3.99932 16.422 4.02585 16.5438 4.09315 16.6437C4.16045 16.7436 4.26342 16.814 4.38095 16.8403C4.49847 16.8667 4.62164 16.8471 4.72518 16.7856C4.82872 16.7241 4.90478 16.6252 4.93777 16.5094C5.00152 16.2375 6.06652 11.8078 9.76215 8.95219L13.4437 12.6328C12.8368 13.1605 12.3501 13.8123 12.0165 14.5441C11.6828 15.2759 11.51 16.0707 11.5096 16.875C11.5096 19.9781 14.0315 22.5 17.1346 22.5C18.8259 22.5 20.3456 21.75 21.3768 20.5659ZM20.7131 19.9022C20.2735 20.4228 19.7255 20.8412 19.1074 21.128C18.4893 21.4148 17.816 21.5631 17.1346 21.5625C14.5471 21.5625 12.4471 19.4625 12.4471 16.875C12.4471 15.4406 13.0921 14.1562 14.1065 13.2975L20.7131 19.9022ZM16.7175 11.265L17.67 12.2175C18.7212 12.3391 19.7006 12.8124 20.4489 13.5608C21.1972 14.3091 21.6706 15.2884 21.7921 16.3397L22.7446 17.2922C22.7546 17.1547 22.7596 17.0156 22.7596 16.875C22.759 16.1013 22.5989 15.3361 22.2894 14.627C21.9798 13.918 21.5274 13.2804 20.9605 12.754C20.3935 12.2275 19.7241 11.8236 18.9941 11.5674C18.264 11.3113 17.4891 11.2083 16.7175 11.265ZM12.0393 6.58687L12.7518 7.30031C14.0137 6.83906 15.4659 6.5625 17.1356 6.5625C26.9418 6.5625 29.2387 16.1062 29.3325 16.5094C29.3887 16.725 29.5762 16.875 29.7918 16.875C29.805 16.875 29.8196 16.8734 29.8359 16.8703C29.8546 16.8678 29.8743 16.8663 29.895 16.8656C30.1481 16.8094 30.3075 16.5562 30.2512 16.3031V16.2994C30.1865 16.0462 27.6271 5.625 17.1337 5.625C15.1687 5.625 13.4821 5.99062 12.0375 6.58687" fill="white" fill-opacity="0.5"/>
</g>
<defs>
<filter id="filter0_d_704_6" x="-1.86348" y="0" width="38" height="38" filterUnits="userSpaceOnUse" color-interpolation-filters="sRGB">
<feFlood flood-opacity="0" result="BackgroundImageFix"/>
<feColorMatrix in="SourceAlpha" type="matrix" values="0 0 0 0 0 0 0 0 0 0 0 0 0 0 0 0 0 0 127 0" result="hardAlpha"/>
<feOffset dy="4"/>
<feGaussianBlur stdDeviation="2"/>
<feComposite in2="hardAlpha" operator="out"/>
<feColorMatrix type="matrix" values="0 0 0 0 0 0 0 0 0 0 0 0 0 0 0 0 0 0 0.25 0"/>
<feBlend mode="normal" in2="BackgroundImageFix" result="effect1_dropShadow_704_6"/>
<feBlend mode="normal" in="SourceGraphic" in2="effect1_dropShadow_704_6" result="shape"/>
</filter>
</defs>
</svg>
