<svg width="30" height="30" viewBox="0 0 30 30" fill="none" xmlns="http://www.w3.org/2000/svg">
<path d="M19.2403 20.5659L26.5247 27.8503C26.7015 28.0211 26.9383 28.1156 27.1841 28.1134C27.4299 28.1113 27.6651 28.0127 27.8389 27.8389C28.0127 27.6651 28.1113 27.4299 28.1134 27.1841C28.1156 26.9383 28.0211 26.7015 27.8503 26.5247L3.47531 2.14969C3.38883 2.06015 3.28538 1.98873 3.171 1.93959C3.05663 1.89046 2.93361 1.8646 2.80913 1.86352C2.68465 1.86243 2.5612 1.88615 2.44598 1.93329C2.33077 1.98043 2.22609 2.05004 2.13807 2.13807C2.05004 2.22609 1.98043 2.33077 1.93329 2.44598C1.88615 2.5612 1.86243 2.68465 1.86352 2.80913C1.8646 2.93361 1.89046 3.05663 1.93959 3.171C1.98873 3.28538 2.06015 3.38883 2.14969 3.47531L6.98344 8.31C3.12469 11.385 1.94906 16.0369 1.88531 16.2928L1.8825 16.3031C1.8628 16.422 1.88933 16.5438 1.95663 16.6437C2.02393 16.7436 2.1269 16.814 2.24443 16.8403C2.36195 16.8667 2.48512 16.8471 2.58866 16.7856C2.6922 16.7241 2.76826 16.6252 2.80125 16.5094C2.865 16.2375 3.93 11.8078 7.62562 8.95219L11.3072 12.6328C10.7003 13.1605 10.2136 13.8123 9.87995 14.5441C9.54631 15.2759 9.37349 16.0707 9.37312 16.875C9.37312 19.9781 11.895 22.5 14.9981 22.5C16.6894 22.5 18.2091 21.75 19.2403 20.5659ZM18.5766 19.9022C18.137 20.4228 17.589 20.8412 16.9709 21.128C16.3528 21.4148 15.6795 21.5631 14.9981 21.5625C12.4106 21.5625 10.3106 19.4625 10.3106 16.875C10.3106 15.4406 10.9556 14.1562 11.97 13.2975L18.5766 19.9022ZM14.5809 11.265L15.5334 12.2175C16.5847 12.3391 17.564 12.8124 18.3124 13.5608C19.0607 14.3091 19.5341 15.2884 19.6556 16.3397L20.6081 17.2922C20.6181 17.1547 20.6231 17.0156 20.6231 16.875C20.6225 16.1013 20.4624 15.3361 20.1529 14.627C19.8433 13.918 19.3909 13.2804 18.8239 12.754C18.257 12.2275 17.5876 11.8236 16.8576 11.5674C16.1275 11.3113 15.3525 11.2083 14.5809 11.265ZM9.90281 6.58687L10.6153 7.30031C11.8772 6.83906 13.3294 6.5625 14.9991 6.5625C24.8053 6.5625 27.1022 16.1063 27.1959 16.5094C27.2522 16.725 27.4397 16.875 27.6553 16.875C27.6684 16.875 27.6831 16.8734 27.6994 16.8703C27.7181 16.8678 27.7378 16.8663 27.7584 16.8656C28.0116 16.8094 28.1709 16.5562 28.1147 16.3031V16.2994C28.05 16.0462 25.4906 5.625 14.9972 5.625C13.0322 5.625 11.3456 5.99062 9.90094 6.58687" fill="white" fill-opacity="0.5"/>
</svg>
