<svg width="31" height="31" viewBox="0 0 31 31" fill="none" xmlns="http://www.w3.org/2000/svg">
<g clip-path="url(#clip0_152_198)">
<path d="M13.4805 23.1244V14.0823L3.85156 9.26782V22.5076L12.0361 26.6149L11.5697 28.5256L1.92578 23.7112V7.10132L14.4434 0.857574L26.9609 7.10132V11.1635C26.2588 11.2738 25.6169 11.4995 25.0352 11.8405V9.26782L15.4062 14.0823V21.1986L13.4805 23.1244ZM11.3441 4.54364L20.1304 9.56873L23.8466 7.70312L14.4434 2.99399L11.3441 4.54364ZM14.4434 12.4123L18.0542 10.6068L9.26782 5.58176L5.04013 7.70312L14.4434 12.4123ZM27.8035 13.4805C28.2247 13.4805 28.6159 13.5557 28.977 13.7061C29.3381 13.8566 29.659 14.0622 29.9399 14.323C30.2207 14.5838 30.4314 14.8997 30.5718 15.2708C30.7122 15.642 30.7924 16.0381 30.8125 16.4594C30.8125 16.8506 30.7373 17.2317 30.5868 17.6028C30.4364 17.974 30.2207 18.2999 29.9399 18.5808L19.1525 29.3682L13.4805 30.7824L14.8947 25.1104L25.6821 14.338C25.973 14.0472 26.299 13.8315 26.66 13.6911C27.0211 13.5507 27.4023 13.4805 27.8035 13.4805ZM28.5708 17.2267C28.7814 17.0161 28.8867 16.7603 28.8867 16.4594C28.8867 16.1485 28.7864 15.8977 28.5858 15.7072C28.3852 15.5166 28.1244 15.4163 27.8035 15.4062C27.663 15.4062 27.5276 15.4263 27.3972 15.4664C27.2669 15.5066 27.1515 15.5818 27.0512 15.6921L16.64 26.1034L16.1284 28.1345L18.1595 27.6229L28.5708 17.2267Z" fill="white"/>
</g>
<defs>
<clipPath id="clip0_152_198">
<rect width="30.8125" height="30.8125" fill="white"/>
</clipPath>
</defs>
</svg>
