<svg width="24" height="24" viewBox="0 0 24 24" fill="none" xmlns="http://www.w3.org/2000/svg">
<path d="M11.5731 4.33988C11.5731 4.21199 11.5223 4.08933 11.4318 3.9989C11.3414 3.90847 11.2188 3.85767 11.0909 3.85767C10.963 3.85767 10.8403 3.90847 10.7499 3.9989C10.6595 4.08933 10.6087 4.21199 10.6087 4.33988V5.81544C8.43871 6.05654 6.75098 7.88893 6.75098 10.1264V15.8261L5.21756 17.3595H16.9642L15.4307 15.8261V10.1264C15.4307 7.88893 13.743 6.05654 11.5731 5.81544V4.33988ZM11.0909 2.89325C11.4745 2.89325 11.8425 3.04566 12.1138 3.31696C12.3851 3.58825 12.5375 3.95621 12.5375 4.33988V5.02461C14.7653 5.65148 16.3952 7.71534 16.3952 10.1264V15.4307L19.2884 18.3239H2.89331L5.78656 15.4307V10.1264C5.78656 7.71534 7.41643 5.65148 9.64423 5.02461V4.33988C9.64423 3.95621 9.79665 3.58825 10.0679 3.31696C10.3392 3.04566 10.7072 2.89325 11.0909 2.89325ZM11.0909 21.2172C10.535 21.2173 9.99625 21.0254 9.56568 20.6739C9.13511 20.3224 8.8392 19.8329 8.72804 19.2884H9.73103C9.83022 19.5698 10.0143 19.8135 10.2578 19.9859C10.5014 20.1583 10.7925 20.2509 11.0909 20.2509C11.3893 20.2509 11.6803 20.1583 11.9239 19.9859C12.1674 19.8135 12.3515 19.5698 12.4507 19.2884H13.4537C13.3425 19.8329 13.0466 20.3224 12.616 20.6739C12.1855 21.0254 11.6467 21.2173 11.0909 21.2172Z" fill="#AAA6A6"/>
</svg>
