<svg width="20" height="20" viewBox="0 0 20 20" fill="none" xmlns="http://www.w3.org/2000/svg">
<path d="M9.98214 0C10.1668 0 10.344 0.0733734 10.4746 0.203979C10.6052 0.334585 10.6786 0.511724 10.6786 0.696429V9.28572H19.2679C19.4526 9.28572 19.6297 9.35909 19.7603 9.4897C19.8909 9.6203 19.9643 9.79744 19.9643 9.98214C19.9643 10.1668 19.8909 10.344 19.7603 10.4746C19.6297 10.6052 19.4526 10.6786 19.2679 10.6786H10.6786V19.2679C10.6786 19.4526 10.6052 19.6297 10.4746 19.7603C10.344 19.8909 10.1668 19.9643 9.98214 19.9643C9.79744 19.9643 9.6203 19.8909 9.4897 19.7603C9.35909 19.6297 9.28572 19.4526 9.28572 19.2679V10.6786H0.696429C0.511724 10.6786 0.334585 10.6052 0.203979 10.4746C0.0733734 10.344 0 10.1668 0 9.98214C0 9.79744 0.0733734 9.6203 0.203979 9.4897C0.334585 9.35909 0.511724 9.28572 0.696429 9.28572H9.28572V0.696429C9.28572 0.511724 9.35909 0.334585 9.4897 0.203979C9.6203 0.0733734 9.79744 0 9.98214 0Z" fill="white"/>
</svg>
