<svg width="18" height="29" viewBox="0 0 18 29" fill="none" xmlns="http://www.w3.org/2000/svg">
<path d="M17.5163 2.44508C17.6708 2.30672 17.7916 2.14398 17.8718 1.96612C17.952 1.78827 17.9899 1.5988 17.9836 1.40852C17.9772 1.21825 17.9266 1.03089 17.8347 0.85716C17.7428 0.683428 17.6113 0.526718 17.4478 0.395979C17.2843 0.265239 17.0919 0.16303 16.8817 0.0951877C16.6715 0.027345 16.4476 -0.00480298 16.2227 0.000579663C15.9978 0.0059623 15.7764 0.0487699 15.5711 0.126558C15.3658 0.204347 15.1805 0.315593 15.026 0.453945L0.468152 13.4963C0.167512 13.7654 0 14.1216 0 14.4919C0 14.8621 0.167512 15.2184 0.468152 15.4874L15.026 28.5312C15.1795 28.6726 15.3647 28.7868 15.5708 28.8671C15.7769 28.9474 15.9997 28.9923 16.2265 28.9991C16.4532 29.0059 16.6793 28.9745 16.8916 28.9068C17.1039 28.839 17.2982 28.7363 17.4632 28.6045C17.6281 28.4727 17.7605 28.3144 17.8526 28.139C17.9447 27.9635 17.9947 27.7743 17.9996 27.5824C18.0045 27.3905 17.9644 27.1996 17.8814 27.0209C17.7984 26.8422 17.6743 26.6793 17.5163 26.5415L4.06823 14.4919L17.5163 2.44508Z" fill="#012F2C"/>
</svg>
